<svg xmlns="http://www.w3.org/2000/svg" width="33.499" height="67.333" viewBox="0 0 33.499 67.333"><defs><style>.a{opacity:0.75;}.b{fill:#85a76b;}</style></defs><g class="a" transform="translate(1 -21)"><g transform="translate(-1 21)"><path class="b" d="M30.974,42.91c4.126-8.788,3.257-23.05-2.55-32.23A34.109,34.109,0,0,0,18.033.23a1.432,1.432,0,0,0-1.519,0l-.162.086c-.115.067-.229.124-.344.2A34.393,34.393,0,0,0,2.638,42.671a4.289,4.289,0,0,0,.076,7.852V65.913a1.433,1.433,0,1,0,2.865,0V61.136H27.622v4.776a1.433,1.433,0,1,0,2.865,0V50.476a4.28,4.28,0,0,0,.487-7.566ZM3.526,23.27l11.9,17.806.124.134v1.06H5.531a31.233,31.233,0,0,1-2.006-19Zm4.03-10.259,7.889,12.418a1.834,1.834,0,0,0,.172.21l-.048,10.508L4.5,19.583a31.688,31.688,0,0,1,3.056-6.572Zm20.553,29.25h-9.7V40.933L30.019,23.251C31.232,29.909,30.8,37.179,28.109,42.261Zm1-22.859L18.444,35.641V26.088c0-.048.067-.076.1-.124l7.937-12.915A29.349,29.349,0,0,1,29.112,19.4Zm-4.279-8.951L18.511,20.663l.076-16.545a31.406,31.406,0,0,1,6.246,6.333ZM15.722,4.165,15.645,20.4,9.323,10.441a31.4,31.4,0,0,1,6.4-6.276ZM5.6,58.271H5.531V50.858h22.09v7.413Z" transform="translate(-0.036 -0.012)"/></g></g></svg>