<svg xmlns="http://www.w3.org/2000/svg" width="67" height="64" viewBox="0 0 67 64"><defs><style>.a{fill:#ffe07d;}.b{fill:#ffd064;}.c{fill:#95d6a4;}.d{fill:#78c2a4;}.e{fill:#f0f7ff;}</style></defs><g transform="translate(0 -85.267)"><g transform="translate(0 85.267)"><g transform="translate(0 0)"><path class="a" d="M240.69,181.647a1.835,1.835,0,0,1,.969-2.02c6.589-3.33,10.948-9.1,10.948-15.669,0-8.172-6.753-15.116-16.156-17.65-12.041.557-21.586,8.324-21.586,17.825,0,9.863,10.285,17.859,22.972,17.859h.093a1.745,1.745,0,0,1,1.52.868,9.283,9.283,0,0,0,.884,1.282l.824-.774C240.95,182.675,240.775,182.045,240.69,181.647Z" transform="translate(-193.809 -125.668)"/><path class="b" d="M348.51,178.934c6.3-3.184,10.468-8.705,10.468-14.983,0-9.863-10.285-17.859-22.972-17.859a29.4,29.4,0,0,0-5.016.428c10.274,1.779,17.956,8.907,17.956,17.43,0,6.278-4.167,11.8-10.468,14.983a1.754,1.754,0,0,0-.927,1.932,19.455,19.455,0,0,0,.953,3.094c3.316,4.105,9.412,5.228,11.941,5.523a.539.539,0,0,0,.518-.827,25,25,0,0,1-3.379-7.79A1.754,1.754,0,0,1,348.51,178.934Z" transform="translate(-291.978 -125.487)"/><path class="c" d="M25.163,87.366C10.869,89.617,0,101.375,0,115.551a27.53,27.53,0,0,0,6.567,17.8,2.619,2.619,0,0,1,.491,2.221A47.953,47.953,0,0,1,1.352,149.19a1.775,1.775,0,0,0,2.112.58c4.178-1.818,6.069-3.765,9.172-7.79a2.367,2.367,0,0,1,3.1-.731q1.057.591,2.168,1.1a5.245,5.245,0,0,0,2.837.493,1.556,1.556,0,0,1,.629.05,30.115,30.115,0,0,0,3.808.843l5.745-.226c12.1-4.076,20.769-15.017,20.769-27.877,0-13.261-9.214-24.482-21.91-28.239Z" transform="translate(0 -87.041)"/><g transform="translate(0.634)"><path class="d" d="M15.216,366.925c-3.391,3.61-5.335,5.185-10.4,6.809-.219.3-.42.562-.595.787a.579.579,0,0,0,.472.934c3.34-.083,12.709-.831,18.382-6.408a1.88,1.88,0,0,1,1.755-.484l0-.008a34.9,34.9,0,0,1-6.522-2.231A2.7,2.7,0,0,0,15.216,366.925Z" transform="translate(-4.103 -311.455)"/><path class="d" d="M167.755,85.267a31.528,31.528,0,0,0-5.016.4c14.28,2.3,25.163,14.256,25.163,28.661s-10.878,26.354-25.152,28.659a31.464,31.464,0,0,0,5.005.4c16.668,0,30.18-13.012,30.18-29.062S184.423,85.267,167.755,85.267Z" transform="translate(-138.21 -85.267)"/></g><g transform="translate(8.644 25.251)"><circle class="e" cx="2.946" cy="2.946" r="2.946"/><circle class="e" cx="2.946" cy="2.946" r="2.946" transform="translate(11.812)"/><circle class="e" cx="2.946" cy="2.946" r="2.946" transform="translate(23.624)"/><circle class="e" cx="2.946" cy="2.946" r="2.946" transform="translate(35.435)"/></g></g></g></g></svg>