<svg xmlns="http://www.w3.org/2000/svg" width="16" height="17" viewBox="0 0 16 17"><defs><style>.a{fill:#85a76b;}</style></defs><path class="a" d="M1.712,0H.778A.778.778,0,0,0,0,.778v.934a.778.778,0,0,0,.778.778h.934a.778.778,0,0,0,.778-.778V.778A.778.778,0,0,0,1.712,0Zm.545,1.712a.545.545,0,0,1-.545.545H.778a.545.545,0,0,1-.545-.545V.778A.545.545,0,0,1,.778.233h.934a.545.545,0,0,1,.545.545Z" transform="translate(6.755 7.255)"/><path class="a" d="M136,128a8.516,8.516,0,1,0,8,8.5A8.262,8.262,0,0,0,136,128Zm0,13.813a5.322,5.322,0,1,1,5-5.312A5.171,5.171,0,0,1,136,141.813Z" transform="translate(-128 -128)"/><circle class="a" cx="1.699" cy="1.699" r="1.699" transform="translate(6.301 6.801)"/></svg>