<svg xmlns="http://www.w3.org/2000/svg" width="89.836" height="46.5" viewBox="0 0 89.836 46.5"><defs><style>.a{fill:#85a76b;}.b{fill:#6d5a34;font-size:8px;font-family:TenorSans, Tenor Sans;}</style></defs><g transform="translate(2 0)"><g transform="translate(19.763 0)"><g transform="translate(0)"><path class="a" d="M26.877,29.637c3.579-6.069,2.825-15.918-2.212-22.258A27.359,27.359,0,0,0,15.65.162a1.518,1.518,0,0,0-1.317,0l-.141.059c-.1.046-.2.086-.3.139C1.662,6.535-3.23,18.813,2.293,29.472A3,3,0,0,0,.1,32.2a3.037,3.037,0,0,0,2.256,2.694V45.522a1.138,1.138,0,0,0,1.243.99,1.138,1.138,0,0,0,1.243-.99v-3.3H23.969v3.3a1.275,1.275,0,0,0,2.486,0V34.862a3.065,3.065,0,0,0,2.2-2.511,2.844,2.844,0,0,0-1.774-2.714ZM3.064,16.074l10.324,12.3.108.092V29.2H4.8a17.564,17.564,0,0,1-1.74-13.121Zm3.5-7.085L13.4,17.565a1.378,1.378,0,0,0,.149.145l-.041,7.257-9.6-11.439A20.191,20.191,0,0,1,6.56,8.989Zm17.831,20.2H15.973v-.917L26.049,16.061C27.1,20.659,26.728,25.679,24.391,29.189Zm.87-15.786L16.006,24.617v-6.6c0-.033.058-.053.083-.086l6.886-8.919A18.251,18.251,0,0,1,25.261,13.4ZM21.549,7.221l-5.485,7.052L16.13,2.847a25.139,25.139,0,0,1,5.419,4.374Zm-7.9-4.341-.066,11.215L8.093,7.214A25.412,25.412,0,0,1,13.645,2.88ZM4.862,40.245H4.8V35.126H23.969v5.119Z" transform="translate(-0.036 -0.012)"/></g></g><text class="b" transform="translate(4 25.666)"><tspan x="-5.232" y="0">Sit</tspan></text><text class="b" transform="translate(69.836 25.609)"><tspan x="-17.38" y="0">Conmigo</tspan></text></g></svg>