<svg xmlns="http://www.w3.org/2000/svg" width="16" height="17" viewBox="0 0 16 17"><defs><style>.a{fill:#85a76b;}</style></defs><path class="a" d="M56.272,0C50.874,0,48,2.986,48,6.241a4.461,4.461,0,0,0,2.542,3.99c.238.092.367.053.42-.137.047-.145.252-.84.352-1.169a.272.272,0,0,0-.084-.3A3.553,3.553,0,0,1,50.3,6.281c0-2.271,2.091-4.475,5.65-4.475,3.077,0,5.23,1.726,5.23,4.194,0,2.789-1.71,4.719-3.931,4.719-1.23,0-2.145-.833-1.855-1.864a18.012,18.012,0,0,0,1.039-3.432,1.416,1.416,0,0,0-1.58-1.45,2.364,2.364,0,0,0-2.267,2.507,3.186,3.186,0,0,0,.374,1.529s-1.238,4.318-1.468,5.125a9.928,9.928,0,0,0,.091,3.767.136.136,0,0,0,.236.052,12.949,12.949,0,0,0,2.038-3.314c.153-.486.779-2.454.779-2.454a3.608,3.608,0,0,0,2.87,1.182A6.335,6.335,0,0,0,64,5.951C63.99,2.547,60.615,0,56.272,0" transform="translate(-48.004)"/></svg>