<svg xmlns="http://www.w3.org/2000/svg" width="16" height="17" viewBox="0 0 16 17"><defs><style>.a{fill:#85a76b;}</style></defs><path class="a" d="M16,50.013a5.64,5.64,0,0,1-1.89.677,4.254,4.254,0,0,0,1.443-2.371,5.725,5.725,0,0,1-2.08,1.038A2.992,2.992,0,0,0,11.077,48C9.261,48,7.8,49.928,7.8,52.291a5.731,5.731,0,0,0,.076.978,8.809,8.809,0,0,1-6.761-4.487A5.37,5.37,0,0,0,.665,50.95a4.758,4.758,0,0,0,1.457,3.565A2.683,2.683,0,0,1,.64,53.987v.047c0,2.084,1.137,3.816,2.628,4.215a2.553,2.553,0,0,1-.86.141,2.242,2.242,0,0,1-.621-.073A3.568,3.568,0,0,0,4.852,61.3,5.693,5.693,0,0,1,.785,63.134,4.718,4.718,0,0,1,0,63.075,7.749,7.749,0,0,0,5.032,65c6.036,0,9.336-6.538,9.336-12.206,0-.19-.005-.373-.012-.554A7.992,7.992,0,0,0,16,50.013Z" transform="translate(0 -48)"/></svg>