<svg xmlns="http://www.w3.org/2000/svg" width="68" height="72" viewBox="0 0 68 72"><path d="M34,0C15.251,0,0,16.148,0,36S15.251,72,34,72,68,55.849,68,36,52.749,0,34,0Zm0,66.423C18.159,66.423,5.267,52.776,5.267,36S18.159,5.577,34,5.577,62.733,19.224,62.733,36,49.841,66.423,34,66.423Z"/><g transform="translate(16.574 24.619)"><path d="M172.34,193.952,157.688,179.3a2.929,2.929,0,0,0-4.132,0L138.9,193.952a2.93,2.93,0,0,0,4.132,4.132l12.572-12.572,12.6,12.572a2.922,2.922,0,1,0,4.132-4.132Z" transform="translate(-138.197 -178.446)"/></g></svg>